<?xml version="1.0" encoding="utf-8"?>
<svg xmlns="http://www.w3.org/2000/svg" xmlns:xlink="http://www.w3.org/1999/xlink" version="1.1" style="width:0;height:0;position:absolute;overflow:hidden;">
  <defs>
<symbol viewBox="0 0 1026.666748046875 1024" aria-labelledby="gdsi-ant-star-o-title" id="si-ant-star-o"><title id="gdsi-ant-star-o-title">icon star-o</title><path d="M513.333 64q6 0 10 7l117 248 15 31 33 5 263 40q7 1 9 9 3 11-3 17l-190 193-23 24 5 32 45 272q2 11-5 16h-1q-2 2-5 2-2 0-5-1l-234-129-31-17-31 17-234 129h-1q-2 1-4 1-3 0-5-2h-1q-7-6-5-16l45-272 5-32-23-24-190-193q-6-7-3-17 2-8 9-9l263-40 33-5 15-31 117-248q4-7 10-7zm0-64q-22 0-40 12t-28 32l-117 248-262 40q-22 3-38.5 17.5t-23 36-1.5 43 21 37.5l190 193-45 273q-4 22 4 43t26 34q20 15 44 15 19 0 36-9l234-129 235 129q16 9 35 9 25 0 44-15 18-13 26-34t4-43l-44-273 189-193q16-15 21-37t-1.5-43.5-23-36-38.5-17.5l-262-40-117-248q-10-20-28-32t-40-12z"/></symbol>
<symbol viewBox="0 0 1026.666748046875 1024" aria-labelledby="gcsi-ant-star-title" id="si-ant-star"><title id="gcsi-ant-star-title">icon star</title><path d="M1021.833 385.5q-6.5-21.5-23-36t-38.5-17.5l-262-40-117-248q-10-20-28-32t-40-12-40 12-28 32l-117 248-262 40q-22 3-38.5 17.5t-23 36-1.5 43 21 37.5l190 193-45 273q-4 22 4 43t26 34q20 15 44 15 19 0 36-9l234-129 235 129q16 9 35 9 25 0 44-15 18-13 26-34t4-43l-44-273 189-193q16-15 21-37t-1.5-43.5z"/></symbol>
<symbol viewBox="0 0 1024 1024" aria-labelledby="glsi-ant-tag-o-title" id="si-ant-tag-o"><title id="glsi-ant-tag-o-title">icon tag-o</title><path d="M412 64l542 547q6 6 6 14t-6 14L635 954q-6 6-15 6t-15-6L64 419V84q0-8 6-14t15-6h327zm4-64H85Q50 0 25 24.5T0 84v340q0 22 16 38l544 537q25 25 60 25t60-25l319-315q25-24 25-58.5t-24-59.5L455 16Q439 0 416 0zM248.5 184q26.5 0 45 19t18.5 45.5-18.5 45-45 18.5-45.5-18.5-19-45 19-45.5 45.5-19zm-.5-64q-53 0-90.5 37.5T120 248t37.5 90.5T248 376t90.5-37.5T376 248t-37.5-90.5T248 120z"/></symbol>
<symbol viewBox="0 0 1024 1024" aria-labelledby="gksi-ant-tag-title" id="si-ant-tag"><title id="gksi-ant-tag-title">icon tag</title><path d="M1000 566L455 16Q439 0 416 0H85Q50 0 25 24.5T0 84v340q0 22 16 38l544 537q25 25 60 25t60-25l319-315q25-24 25-58.5t-24-59.5zM248 376q-53 0-90.5-37.5T120 248t37.5-90.5T248 120t90.5 37.5T376 248t-37.5 90.5T248 376zm.5-192q-26.5 0-45.5 19t-19 45.5 19 45 45.5 18.5 45-18.5 18.5-45-18.5-45.5-45-19z"/></symbol>
  </defs>
</svg>
